<?xml version="1.0" encoding="utf-8"?>
<!-- Generator: Adobe Illustrator 19.2.1, SVG Export Plug-In . SVG Version: 6.00 Build 0)  -->
<!DOCTYPE svg PUBLIC "-//W3C//DTD SVG 1.1//EN" "http://www.w3.org/Graphics/SVG/1.1/DTD/svg11.dtd">
<svg version="1.1" id="レイヤー_1" xmlns="http://www.w3.org/2000/svg" xmlns:xlink="http://www.w3.org/1999/xlink" x="0px"
	 y="0px" width="17px" height="12px" viewBox="0 0 17 12" style="enable-background:new 0 0 17 12;" xml:space="preserve">
<style type="text/css">
	.st0{fill:#AAAAAA;}
</style>
<g>
	<g>
		<g>
			<path class="st0" d="M0,1c0-0.5,0.4-1,1-1h15c0.5,0,1,0.4,1,1s-0.5,1-1,1H1C0.4,2,0,1.5,0,1z"/>
		</g>
		<g>
			<path class="st0" d="M0,6c0-0.5,0.4-1,1-1h15c0.5,0,1,0.4,1,1s-0.5,1-1,1H1C0.4,7,0,6.5,0,6z"/>
		</g>
		<g>
			<path class="st0" d="M0,11c0-0.5,0.4-1,1-1h15c0.5,0,1,0.4,1,1s-0.5,1-1,1H1C0.4,12,0,11.5,0,11z"/>
		</g>
	</g>
</g>
</svg>
