<?xml version="1.0" encoding="utf-8"?>
<!-- Generator: Adobe Illustrator 19.2.1, SVG Export Plug-In . SVG Version: 6.00 Build 0)  -->
<!DOCTYPE svg PUBLIC "-//W3C//DTD SVG 1.1//EN" "http://www.w3.org/Graphics/SVG/1.1/DTD/svg11.dtd">
<svg version="1.1" id="レイヤー_1" xmlns="http://www.w3.org/2000/svg" xmlns:xlink="http://www.w3.org/1999/xlink" x="0px"
	 y="0px" width="512px" height="512px" viewBox="0 0 512 512" style="enable-background:new 0 0 512 512;" xml:space="preserve">
<style type="text/css">
	.st0{fill:#333333;}
</style>
<g>
	<g>
		<path class="st0" d="M490.2,358.8l-44.7-44.7c-13.5-13.5-37.5-12.5-49.9,1c-29.1,32.3-40.6,36.4-43.7,37.5c-5.2,1-10.4,1-15.6,1
			c-41.6,0-96.8-31.2-135.2-79.1c-32.3-39.5-47.9-82.2-41.6-114.4c1-2.1,5.2-14.6,37.5-43.7c7.3-6.2,11.4-15.6,11.4-25
			s-4.2-18.7-10.4-25l-44.7-44.7c-11.4-11.4-30.2-13.5-43.7-4.2c-44.8,32.3-97.9,76-97.9,107.2c0,133.2,242.4,375.6,375.6,375.6
			c32.3,0,75.9-53.1,107.2-97.8C503.8,389,501.7,370.3,490.2,358.8z M478.8,392.1c-38.5,54.1-73.9,88.4-90.5,88.4
			c-122.8,0-355.8-233-355.8-355.8c0-17.7,33.3-52,88.4-90.5c5.3-3.4,12-3.2,17.7,3.1L183.3,82c6.4,6.8,3.2,17-1,20.8
			c-35.4,32.3-41.6,46.8-43.7,55.1c-7.3,38.5,9.4,86.3,45.8,131.1c42.7,52,102,86.3,150.8,86.3c7.3,0,13.5-1,19.8-2.1
			c8.3-2.1,22.9-8.3,55.1-43.7c5.2-6.2,15.6-6.2,20.8-1l45.8,45.8C481.9,378.6,483,386.9,478.8,392.1L478.8,392.1z"/>
		<path class="st0" d="M409.1,108.1c34.3,34.3,48.9,83.2,40.6,130l19.8,3.1c9.4-54.1-8.3-109.2-45.8-147.7
			c-40.6-40.6-98.8-57.2-155-44.7l4.2,19.8C321.7,57.1,372.7,71.7,409.1,108.1L409.1,108.1z"/>
		<path class="st0" d="M393.5,230.9c5.2-30.2-4.2-61.4-26-83.2c-22.9-22.9-55.1-32.3-87.4-25l4.2,19.8c25-5.2,51,2.1,68.7,19.8
			c17.7,17.7,25,41.6,20.8,65.5L393.5,230.9L393.5,230.9z"/>
	</g>
</g>
</svg>
