<svg id="Layer_1" data-name="Layer 1" xmlns="http://www.w3.org/2000/svg" viewBox="0 0 10 10"><defs><style>.cls-1{fill:#1e8d14;}</style></defs><title>ベクトルスマートオブジェクト</title><path class="cls-1" d="M9.55,0H5.91a.46.46,0,0,0-.46.45.46.46,0,0,0,.46.46H8.45L3.77,5.59a.45.45,0,0,0,0,.64.46.46,0,0,0,.64,0L9.09,1.55V4.09a.46.46,0,1,0,.91,0V.45A.45.45,0,0,0,9.55,0Z"/><path class="cls-1" d="M7.73,4.55A.46.46,0,0,0,7.27,5V9.09H.91V2.73H5a.46.46,0,0,0,.45-.46A.45.45,0,0,0,5,1.82H.45A.45.45,0,0,0,0,2.27V9.55A.45.45,0,0,0,.45,10H7.73a.45.45,0,0,0,.45-.45V5A.45.45,0,0,0,7.73,4.55Z"/></svg>