<svg version="1.1" id="_x31_0" xmlns="http://www.w3.org/2000/svg" xmlns:xlink="http://www.w3.org/1999/xlink" x="0px" y="0px" viewBox="0 0 512 512" style="width: 48px; height: 48px; opacity: 1;" xml:space="preserve">
<style type="text/css">
	.st0{fill:#374149;}
</style>
<g>
	<path class="st0" d="M492.363,399.079l-50.354-50.499L429.2,335.706c-0.003,0.008-0.007,0.011-0.011,0.019l-0.058-0.058
		c-20.925,36.016-50.523,66.466-85.833,88.631c-2.615,1.636-5.188,3.338-7.866,4.876l0.015,0.012
		c-0.023,0.015-0.046,0.031-0.07,0.046l63.148,63.331c12.976,12.933,29.852,19.414,46.822,19.437
		c16.97,0.023,33.866-6.406,46.88-19.3C518.09,466.911,518.152,424.946,492.363,399.079z" style="fill: rgb(123, 123, 123);"></path>
	<path class="st0" d="M414.21,207.236C414.378,92.946,321.863,0.164,207.576,0C93.284-0.168,0.5,92.344,0.336,206.635
		C0.168,320.926,92.684,413.71,206.974,413.874C321.261,414.042,414.046,321.527,414.21,207.236z M362.477,207.162
		c-0.125,85.579-69.85,155.105-155.429,154.98c-85.578-0.125-155.101-69.854-154.98-155.429
		c0.125-85.582,69.85-155.105,155.429-154.98C293.08,51.858,362.602,121.583,362.477,207.162z" style="fill: rgb(123, 123, 123);"></path>
	<path class="st0" d="M110.087,241.289l56.316,0.082c3.498,0.004,6.328,2.838,6.324,6.336l-0.07,48.278
		c-0.012,7.936,6.41,14.382,14.35,14.393l40.236,0.058c7.936,0.012,14.382-6.414,14.394-14.354l0.07-48.274
		c0.004-3.498,2.842-6.324,6.34-6.32l48.278,0.07c7.936,0.011,14.378-6.418,14.389-14.35l0.058-40.24
		c0.012-7.937-6.41-14.382-14.35-14.394l-48.278-0.07c-3.494-0.004-6.324-2.838-6.32-6.339l0.07-48.278
		c0.011-7.933-6.414-14.378-14.35-14.39l-40.237-0.058c-7.94-0.011-14.381,6.414-14.393,14.346l-0.07,48.278
		c-0.004,3.502-2.842,6.328-6.343,6.324l-56.312-0.082c-3.498-0.007-6.336,2.826-6.344,6.328l-0.082,56.308
		C103.759,238.443,106.588,241.285,110.087,241.289z" style="fill: rgb(123, 123, 123);"></path>
</g>
</svg>